# WaveFront *.obj file (generated by Autodesk ATF)

mtllib stairs.mtl

g ボディ6

v 7.900000 -5.100000 -0.100000
v 7.900000 0.100000 -0.100000
v 7.900000 0.100000 2.600000
v 7.900000 -5.100000 2.600000
v 7.800000 -5.000000 1.600000
v 7.800000 -5.000000 2.600000
v 7.800000 0.000000 2.600000
v 7.800000 0.000000 1.600000
v -5.100000 0.100000 -0.100000
v -5.100000 -5.100000 -0.100000
v -5.100000 -5.100000 1.000000
v -5.100000 0.100000 1.000000
v -5.000000 0.000000 0.000000
v -5.000000 0.000000 1.000000
v -5.000000 -5.000000 1.000000
v -5.000000 -5.000000 0.000000
v 0.000000 0.000000 0.000000
v 0.000000 0.000000 0.160000
v 0.280000 0.000000 0.160000
v 0.280000 0.000000 0.320000
v 0.560000 0.000000 0.320000
v 0.560000 0.000000 0.480000
v 0.840000 0.000000 0.480000
v 0.840000 0.000000 0.640000
v 1.120000 0.000000 0.640000
v 1.120000 0.000000 0.800000
v 1.400000 0.000000 0.800000
v 1.400000 0.000000 0.960000
v 1.680000 0.000000 0.960000
v 1.680000 0.000000 1.120000
v 1.960000 0.000000 1.120000
v 1.960000 0.000000 1.280000
v 2.240000 0.000000 1.280000
v 2.240000 0.000000 1.440000
v 2.520000 0.000000 1.440000
v 2.520000 0.000000 1.600000
v 2.520000 0.000000 2.600000
v 0.000000 0.000000 1.000000
v 0.000000 0.100000 1.000000
v 0.000000 -5.100000 1.000000
v 0.000000 -5.000000 1.000000
v 2.520000 0.100000 2.600000
v 2.520000 -5.000000 2.600000
v 2.520000 -5.100000 2.600000
v 0.000000 -5.000000 0.000000
v 2.520000 -5.000000 1.600000
v 2.520000 -5.000000 1.440000
v 2.240000 -5.000000 1.440000
v 2.240000 -5.000000 1.280000
v 1.960000 -5.000000 1.280000
v 1.960000 -5.000000 1.120000
v 1.680000 -5.000000 1.120000
v 1.680000 -5.000000 0.960000
v 1.400000 -5.000000 0.960000
v 1.400000 -5.000000 0.800000
v 1.120000 -5.000000 0.800000
v 1.120000 -5.000000 0.640000
v 0.840000 -5.000000 0.640000
v 0.840000 -5.000000 0.480000
v 0.560000 -5.000000 0.480000
v 0.560000 -5.000000 0.320000
v 0.280000 -5.000000 0.320000
v 0.280000 -5.000000 0.160000
v 0.000000 -5.000000 0.160000
vt 135.000000 260.000000 0.000000
vt -135.000000 260.000000 0.000000
vt 135.000000 -260.000000 0.000000
vt -135.000000 -260.000000 0.000000
vt 250.000000 135.000000 0.000000
vt -250.000000 135.000000 0.000000
vt 250.000000 35.000000 0.000000
vt -250.000000 35.000000 0.000000
vt -55.000000 -260.000000 0.000000
vt 55.000000 -260.000000 0.000000
vt -55.000000 260.000000 0.000000
vt 55.000000 260.000000 0.000000
vt 250.000000 55.000000 0.000000
vt -250.000000 55.000000 0.000000
vt 250.000000 -45.000000 0.000000
vt -250.000000 -45.000000 0.000000
vt 125.000000 -140.000000 0.000000
vt 109.000000 -140.000000 0.000000
vt 125.000000 -640.000000 0.000000
vt 93.000000 -112.000000 0.000000
vt 25.000000 -640.000000 0.000000
vt 77.000000 -84.000000 0.000000
vt 25.000000 -140.000000 0.000000
vt 61.000000 -56.000000 0.000000
vt 45.000000 -28.000000 0.000000
vt 61.000000 -28.000000 0.000000
vt 109.000000 -112.000000 0.000000
vt 93.000000 -84.000000 0.000000
vt 77.000000 -56.000000 0.000000
vt 45.000000 0.000000 0.000000
vt 29.000000 0.000000 0.000000
vt 29.000000 28.000000 0.000000
vt 13.000000 28.000000 0.000000
vt 13.000000 56.000000 0.000000
vt -3.000000 56.000000 0.000000
vt -3.000000 84.000000 0.000000
vt -19.000000 84.000000 0.000000
vt -19.000000 112.000000 0.000000
vt -35.000000 112.000000 0.000000
vt -35.000000 640.000000 0.000000
vt -135.000000 640.000000 0.000000
vt -135.000000 112.000000 0.000000
vt 0.000000 10.000000 0.000000
vt 0.000000 0.000000 0.000000
vt 500.000000 10.000000 0.000000
vt 510.000000 0.000000 0.000000
vt 500.000000 510.000000 0.000000
vt 510.000000 520.000000 0.000000
vt 0.000000 520.000000 0.000000
vt 0.000000 510.000000 0.000000
vt -0.000000 0.000000 0.000000
vt 298.502931 -0.000000 0.000000
vt 0.000000 10.000000 0.000000
vt 298.502931 10.000000 0.000000
vt 650.000000 -25.000000 0.000000
vt 140.000000 -25.000000 0.000000
vt 650.000000 -135.000000 0.000000
vt -650.000000 -135.000000 0.000000
vt -650.000000 135.000000 0.000000
vt -112.000000 135.000000 0.000000
vt -0.000000 0.000000 0.000000
vt 298.502931 -0.000000 0.000000
vt 0.000000 10.000000 0.000000
vt 298.502931 10.000000 0.000000
vt 528.000000 0.000000 0.000000
vt 528.000000 10.000000 0.000000
vt -0.000000 0.000000 0.000000
vt -10.000000 10.000000 0.000000
vt -10.000000 -510.000000 0.000000
vt -0.000000 -500.000000 0.000000
vt 528.000000 -510.000000 0.000000
vt 528.000000 -500.000000 0.000000
vt 25.000000 -650.000000 0.000000
vt 135.000000 -650.000000 0.000000
vt 25.000000 -140.000000 0.000000
vt 135.000000 650.000000 0.000000
vt -135.000000 650.000000 0.000000
vt -135.000000 112.000000 0.000000
vt 140.000000 -125.000000 0.000000
vt 640.000000 -125.000000 0.000000
vt 140.000000 -109.000000 0.000000
vt 112.000000 -93.000000 0.000000
vt 112.000000 -109.000000 0.000000
vt 640.000000 -25.000000 0.000000
vt 84.000000 -77.000000 0.000000
vt 84.000000 -93.000000 0.000000
vt 140.000000 -25.000000 0.000000
vt 56.000000 -61.000000 0.000000
vt 56.000000 -77.000000 0.000000
vt -112.000000 135.000000 0.000000
vt -112.000000 35.000000 0.000000
vt -84.000000 19.000000 0.000000
vt -56.000000 3.000000 0.000000
vt -84.000000 3.000000 0.000000
vt -640.000000 135.000000 0.000000
vt -640.000000 35.000000 0.000000
vt -112.000000 19.000000 0.000000
vt -56.000000 -13.000000 0.000000
vt -28.000000 -13.000000 0.000000
vt -28.000000 -29.000000 0.000000
vt -0.000000 -29.000000 0.000000
vt -0.000000 -45.000000 0.000000
vt 28.000000 -45.000000 0.000000
vt 28.000000 -61.000000 0.000000
vt -900.000000 -260.000000 0.000000
vt 400.000000 -260.000000 0.000000
vt -900.000000 260.000000 0.000000
vt 400.000000 260.000000 0.000000
vt -110.000000 -250.000000 0.000000
vt 390.000000 -250.000000 0.000000
vt -110.000000 250.000000 0.000000
vt 390.000000 250.000000 0.000000
vt -0.000000 0.000000 0.000000
vt 500.000000 0.000000 0.000000
vt -0.000000 16.000000 0.000000
vt 500.000000 16.000000 0.000000
vt -14.000000 -250.000000 0.000000
vt 14.000000 -250.000000 0.000000
vt -14.000000 250.000000 0.000000
vt 14.000000 250.000000 0.000000
vt -0.000000 0.000000 0.000000
vt 500.000000 0.000000 0.000000
vt -0.000000 16.000000 0.000000
vt 500.000000 16.000000 0.000000
vt -14.000000 -250.000000 0.000000
vt 14.000000 -250.000000 0.000000
vt -14.000000 250.000000 0.000000
vt 14.000000 250.000000 0.000000
vt -0.000000 0.000000 0.000000
vt 500.000000 0.000000 0.000000
vt -0.000000 16.000000 0.000000
vt 500.000000 16.000000 0.000000
vt -14.000000 -250.000000 0.000000
vt 14.000000 -250.000000 0.000000
vt -14.000000 250.000000 0.000000
vt 14.000000 250.000000 0.000000
vt -0.000000 0.000000 0.000000
vt 500.000000 0.000000 0.000000
vt -0.000000 16.000000 0.000000
vt 500.000000 16.000000 0.000000
vt -14.000000 -250.000000 0.000000
vt 14.000000 -250.000000 0.000000
vt -14.000000 250.000000 0.000000
vt 14.000000 250.000000 0.000000
vt -0.000000 0.000000 0.000000
vt 500.000000 0.000000 0.000000
vt -0.000000 16.000000 0.000000
vt 500.000000 16.000000 0.000000
vt -14.000000 -250.000000 0.000000
vt 14.000000 -250.000000 0.000000
vt -14.000000 250.000000 0.000000
vt 14.000000 250.000000 0.000000
vt -0.000000 0.000000 0.000000
vt 500.000000 0.000000 0.000000
vt -0.000000 16.000000 0.000000
vt 500.000000 16.000000 0.000000
vt -14.000000 -250.000000 0.000000
vt 14.000000 -250.000000 0.000000
vt -14.000000 250.000000 0.000000
vt 14.000000 250.000000 0.000000
vt -0.000000 0.000000 0.000000
vt 500.000000 0.000000 0.000000
vt -0.000000 16.000000 0.000000
vt 500.000000 16.000000 0.000000
vt -14.000000 -250.000000 0.000000
vt 14.000000 -250.000000 0.000000
vt -14.000000 250.000000 0.000000
vt 14.000000 250.000000 0.000000
vt -0.000000 0.000000 0.000000
vt 500.000000 0.000000 0.000000
vt -0.000000 16.000000 0.000000
vt 500.000000 16.000000 0.000000
vt -14.000000 -250.000000 0.000000
vt 14.000000 -250.000000 0.000000
vt -14.000000 250.000000 0.000000
vt 14.000000 250.000000 0.000000
vt -14.000000 -250.000000 0.000000
vt 514.000000 -250.000000 0.000000
vt -14.000000 250.000000 0.000000
vt 514.000000 250.000000 0.000000
vt -0.000000 0.000000 0.000000
vt 500.000000 0.000000 0.000000
vt -0.000000 16.000000 0.000000
vt 500.000000 16.000000 0.000000
vt -14.000000 -250.000000 0.000000
vt 14.000000 -250.000000 0.000000
vt -14.000000 250.000000 0.000000
vt 14.000000 250.000000 0.000000
vt -0.000000 0.000000 0.000000
vt 500.000000 0.000000 0.000000
vt -0.000000 16.000000 0.000000
vt 500.000000 16.000000 0.000000
vn 100.000000 0.000000 0.000000
vn 100.000000 0.000000 0.000000
vn 100.000000 0.000000 0.000000
vn 100.000000 0.000000 0.000000
vn -100.000000 0.000000 0.000000
vn -100.000000 0.000000 0.000000
vn -100.000000 0.000000 0.000000
vn -100.000000 0.000000 0.000000
vn -100.000000 0.000000 0.000000
vn -100.000000 0.000000 0.000000
vn -100.000000 0.000000 0.000000
vn -100.000000 0.000000 0.000000
vn 100.000000 0.000000 0.000000
vn 100.000000 0.000000 0.000000
vn 100.000000 0.000000 0.000000
vn 100.000000 0.000000 0.000000
vn 0.000000 -100.000000 0.000000
vn 0.000000 -100.000000 0.000000
vn 0.000000 -100.000000 0.000000
vn 0.000000 -100.000000 0.000000
vn 0.000000 -100.000000 0.000000
vn 0.000000 -100.000000 0.000000
vn 0.000000 -100.000000 0.000000
vn 0.000000 -100.000000 0.000000
vn 0.000000 -100.000000 0.000000
vn 0.000000 -100.000000 0.000000
vn 0.000000 -100.000000 0.000000
vn 0.000000 -100.000000 0.000000
vn 0.000000 -100.000000 0.000000
vn 0.000000 -100.000000 0.000000
vn 0.000000 -100.000000 0.000000
vn 0.000000 -100.000000 0.000000
vn 0.000000 -100.000000 0.000000
vn 0.000000 -100.000000 0.000000
vn 0.000000 -100.000000 0.000000
vn 0.000000 -100.000000 0.000000
vn 0.000000 -100.000000 0.000000
vn 0.000000 -100.000000 0.000000
vn 0.000000 -100.000000 0.000000
vn 0.000000 -100.000000 0.000000
vn 0.000000 -100.000000 0.000000
vn 0.000000 -100.000000 0.000000
vn 0.000000 0.000000 100.000000
vn 0.000000 0.000000 100.000000
vn 0.000000 0.000000 100.000000
vn 0.000000 0.000000 100.000000
vn 0.000000 0.000000 100.000000
vn 0.000000 0.000000 100.000000
vn 0.000000 0.000000 100.000000
vn 0.000000 0.000000 100.000000
vn -53.600814 0.000000 84.421282
vn -53.600814 0.000000 84.421282
vn -53.600814 0.000000 84.421282
vn -53.600814 0.000000 84.421282
vn -0.000000 100.000000 -0.000000
vn -0.000000 100.000000 -0.000000
vn -0.000000 100.000000 -0.000000
vn -0.000000 100.000000 -0.000000
vn -0.000000 100.000000 -0.000000
vn -0.000000 100.000000 -0.000000
vn -53.600814 0.000000 84.421282
vn -53.600814 0.000000 84.421282
vn -53.600814 0.000000 84.421282
vn -53.600814 0.000000 84.421282
vn 0.000000 0.000000 100.000000
vn 0.000000 0.000000 100.000000
vn 0.000000 0.000000 100.000000
vn 0.000000 0.000000 100.000000
vn 0.000000 0.000000 100.000000
vn 0.000000 0.000000 100.000000
vn 0.000000 0.000000 100.000000
vn 0.000000 0.000000 100.000000
vn 0.000000 -100.000000 0.000000
vn 0.000000 -100.000000 0.000000
vn 0.000000 -100.000000 0.000000
vn 0.000000 -100.000000 0.000000
vn 0.000000 -100.000000 0.000000
vn 0.000000 -100.000000 0.000000
vn -0.000000 100.000000 -0.000000
vn -0.000000 100.000000 -0.000000
vn -0.000000 100.000000 -0.000000
vn -0.000000 100.000000 -0.000000
vn -0.000000 100.000000 -0.000000
vn -0.000000 100.000000 -0.000000
vn -0.000000 100.000000 -0.000000
vn -0.000000 100.000000 -0.000000
vn -0.000000 100.000000 -0.000000
vn -0.000000 100.000000 -0.000000
vn -0.000000 100.000000 -0.000000
vn -0.000000 100.000000 -0.000000
vn -0.000000 100.000000 -0.000000
vn -0.000000 100.000000 -0.000000
vn -0.000000 100.000000 -0.000000
vn -0.000000 100.000000 -0.000000
vn -0.000000 100.000000 -0.000000
vn -0.000000 100.000000 -0.000000
vn -0.000000 100.000000 -0.000000
vn -0.000000 100.000000 -0.000000
vn -0.000000 100.000000 -0.000000
vn -0.000000 100.000000 -0.000000
vn -0.000000 100.000000 -0.000000
vn -0.000000 100.000000 -0.000000
vn -0.000000 100.000000 -0.000000
vn -0.000000 100.000000 -0.000000
vn 0.000000 0.000000 -100.000000
vn 0.000000 0.000000 -100.000000
vn 0.000000 0.000000 -100.000000
vn 0.000000 0.000000 -100.000000
vn 0.000000 0.000000 100.000000
vn 0.000000 0.000000 100.000000
vn 0.000000 0.000000 100.000000
vn 0.000000 0.000000 100.000000
vn -100.000000 0.000000 0.000000
vn -100.000000 0.000000 0.000000
vn -100.000000 0.000000 0.000000
vn -100.000000 0.000000 0.000000
vn 0.000000 0.000000 100.000000
vn 0.000000 0.000000 100.000000
vn 0.000000 0.000000 100.000000
vn 0.000000 0.000000 100.000000
vn -100.000000 0.000000 0.000000
vn -100.000000 0.000000 0.000000
vn -100.000000 0.000000 0.000000
vn -100.000000 0.000000 0.000000
vn 0.000000 0.000000 100.000000
vn 0.000000 0.000000 100.000000
vn 0.000000 0.000000 100.000000
vn 0.000000 0.000000 100.000000
vn -100.000000 0.000000 0.000000
vn -100.000000 0.000000 0.000000
vn -100.000000 0.000000 0.000000
vn -100.000000 0.000000 0.000000
vn 0.000000 0.000000 100.000000
vn 0.000000 0.000000 100.000000
vn 0.000000 0.000000 100.000000
vn 0.000000 0.000000 100.000000
vn -100.000000 0.000000 0.000000
vn -100.000000 0.000000 0.000000
vn -100.000000 0.000000 0.000000
vn -100.000000 0.000000 0.000000
vn 0.000000 0.000000 100.000000
vn 0.000000 0.000000 100.000000
vn 0.000000 0.000000 100.000000
vn 0.000000 0.000000 100.000000
vn -100.000000 0.000000 0.000000
vn -100.000000 0.000000 0.000000
vn -100.000000 0.000000 0.000000
vn -100.000000 0.000000 0.000000
vn 0.000000 0.000000 100.000000
vn 0.000000 0.000000 100.000000
vn 0.000000 0.000000 100.000000
vn 0.000000 0.000000 100.000000
vn -100.000000 0.000000 0.000000
vn -100.000000 0.000000 0.000000
vn -100.000000 0.000000 0.000000
vn -100.000000 0.000000 0.000000
vn 0.000000 0.000000 100.000000
vn 0.000000 0.000000 100.000000
vn 0.000000 0.000000 100.000000
vn 0.000000 0.000000 100.000000
vn -100.000000 0.000000 0.000000
vn -100.000000 0.000000 0.000000
vn -100.000000 0.000000 0.000000
vn -100.000000 0.000000 0.000000
vn 0.000000 0.000000 100.000000
vn 0.000000 0.000000 100.000000
vn 0.000000 0.000000 100.000000
vn 0.000000 0.000000 100.000000
vn -100.000000 0.000000 0.000000
vn -100.000000 0.000000 0.000000
vn -100.000000 0.000000 0.000000
vn -100.000000 0.000000 0.000000
vn 0.000000 0.000000 100.000000
vn 0.000000 0.000000 100.000000
vn 0.000000 0.000000 100.000000
vn 0.000000 0.000000 100.000000
vn 0.000000 0.000000 100.000000
vn 0.000000 0.000000 100.000000
vn 0.000000 0.000000 100.000000
vn 0.000000 0.000000 100.000000
vn -100.000000 0.000000 0.000000
vn -100.000000 0.000000 0.000000
vn -100.000000 0.000000 0.000000
vn -100.000000 0.000000 0.000000
vn 0.000000 0.000000 100.000000
vn 0.000000 0.000000 100.000000
vn 0.000000 0.000000 100.000000
vn 0.000000 0.000000 100.000000
vn -100.000000 0.000000 0.000000
vn -100.000000 0.000000 0.000000
vn -100.000000 0.000000 0.000000
vn -100.000000 0.000000 0.000000
usemtl 鋼_-_サテン
f 2/1/1 3/2/2 1/3/3
f 1/3/3 3/2/2 4/4/4
f 6/5/5 7/6/6 5/7/7
f 5/7/7 7/6/6 8/8/8
f 10/9/9 11/10/10 9/11/11
f 9/11/11 11/10/10 12/12/12
f 14/13/13 15/14/14 13/15/15
f 13/15/15 15/14/14 16/16/16
f 17/17/17 18/18/18 13/19/19
f 13/19/19 18/18/18 20/20/20
f 13/19/19 20/20/20 14/21/21
f 14/21/21 20/20/20 22/22/22
f 14/21/21 22/22/22 38/23/23
f 38/23/23 22/22/22 24/24/24
f 38/23/23 24/24/24 26/25/25
f 26/25/25 24/24/24 25/26/26
f 18/18/18 19/27/27 20/20/20
f 20/20/20 21/28/28 22/22/22
f 22/22/22 23/29/29 24/24/24
f 27/30/30 28/31/31 26/25/25
f 26/25/25 28/31/31 38/23/23
f 29/32/32 30/33/33 28/31/31
f 28/31/31 30/33/33 38/23/23
f 31/34/34 32/35/35 30/33/33
f 30/33/33 32/35/35 38/23/23
f 33/36/36 34/37/37 32/35/35
f 32/35/35 34/37/37 38/23/23
f 35/38/38 36/39/39 34/37/37
f 34/37/37 36/39/39 38/23/23
f 8/40/40 7/41/41 36/39/39
f 36/39/39 7/41/41 37/42/42
f 36/39/39 37/42/42 38/23/23
f 38/43/43 39/44/44 14/45/45
f 14/45/45 39/44/44 12/46/46
f 14/45/45 12/46/46 15/47/47
f 15/47/47 12/46/46 11/48/48
f 15/47/47 11/48/48 40/49/49
f 40/49/49 41/50/50 15/47/47
f 42/51/51 39/52/52 37/53/53
f 37/53/53 39/52/52 38/54/54
f 12/55/55 39/56/56 9/57/57
f 9/57/57 39/56/56 2/58/58
f 2/58/58 39/56/56 3/59/59
f 3/59/59 39/56/56 42/60/60
f 43/61/61 41/62/62 44/63/63
f 44/63/63 41/62/62 40/64/64
f 43/65/65 44/66/66 6/67/67
f 6/67/67 44/66/66 4/68/68
f 6/67/67 4/68/68 3/69/69
f 6/67/67 3/69/69 7/70/70
f 7/70/70 3/69/69 42/71/71
f 7/70/70 42/71/71 37/72/72
f 11/73/73 10/74/74 40/75/75
f 40/75/75 10/74/74 1/76/76
f 40/75/75 1/76/76 4/77/77
f 4/77/77 44/78/78 40/75/75
f 45/79/79 16/80/80 64/81/81
f 64/81/81 16/80/80 62/82/82
f 64/81/81 62/82/82 63/83/83
f 16/80/80 15/84/84 62/82/82
f 62/82/82 15/84/84 60/85/85
f 62/82/82 60/85/85 61/86/86
f 15/84/84 41/87/87 60/85/85
f 60/85/85 41/87/87 58/88/88
f 60/85/85 58/88/88 59/89/89
f 43/90/90 46/91/91 41/87/87
f 41/87/87 46/91/91 48/92/92
f 41/87/87 48/92/92 50/93/93
f 50/93/93 48/92/92 49/94/94
f 43/90/90 6/95/95 46/91/91
f 46/91/91 6/95/95 5/96/96
f 46/91/91 47/97/97 48/92/92
f 51/98/98 52/99/99 50/93/93
f 50/93/93 52/99/99 41/87/87
f 53/100/100 54/101/101 52/99/99
f 52/99/99 54/101/101 41/87/87
f 55/102/102 56/103/103 54/101/101
f 54/101/101 56/103/103 41/87/87
f 57/104/104 58/88/88 56/103/103
f 56/103/103 58/88/88 41/87/87
f 1/105/105 10/106/106 2/107/107
f 2/107/107 10/106/106 9/108/108
f 17/109/109 13/110/110 45/111/111
f 45/111/111 13/110/110 16/112/112
f 17/113/113 45/114/114 18/115/115
f 18/115/115 45/114/114 64/116/116
f 64/117/117 63/118/118 18/119/119
f 18/119/119 63/118/118 19/120/120
f 19/121/121 63/122/122 20/123/123
f 20/123/123 63/122/122 62/124/124
f 62/125/125 61/126/126 20/127/127
f 20/127/127 61/126/126 21/128/128
f 21/129/129 61/130/130 22/131/131
f 22/131/131 61/130/130 60/132/132
f 60/133/133 59/134/134 22/135/135
f 22/135/135 59/134/134 23/136/136
f 23/137/137 59/138/138 24/139/139
f 24/139/139 59/138/138 58/140/140
f 58/141/141 57/142/142 24/143/143
f 24/143/143 57/142/142 25/144/144
f 25/145/145 57/146/146 26/147/147
f 26/147/147 57/146/146 56/148/148
f 56/149/149 55/150/150 26/151/151
f 26/151/151 55/150/150 27/152/152
f 27/153/153 55/154/154 28/155/155
f 28/155/155 55/154/154 54/156/156
f 54/157/157 53/158/158 28/159/159
f 28/159/159 53/158/158 29/160/160
f 29/161/161 53/162/162 30/163/163
f 30/163/163 53/162/162 52/164/164
f 50/165/165 49/166/166 32/167/167
f 32/167/167 49/166/166 33/168/168
f 31/169/169 51/170/170 32/171/171
f 32/171/171 51/170/170 50/172/172
f 52/173/173 51/174/174 30/175/175
f 30/175/175 51/174/174 31/176/176
f 46/177/177 5/178/178 36/179/179
f 36/179/179 5/178/178 8/180/180
f 35/181/181 47/182/182 36/183/183
f 36/183/183 47/182/182 46/184/184
f 48/185/185 47/186/186 34/187/187
f 34/187/187 47/186/186 35/188/188
f 33/189/189 49/190/190 34/191/191
f 34/191/191 49/190/190 48/192/192
# 64 vertices
# 192 texture params
# 192 normals
# 124 facets

# 1 groups
